<svg width="24" height="30" viewBox="0 0 24 30" fill="none" xmlns="http://www.w3.org/2000/svg">
<path d="M23.702 17.4856C23.3425 13.1491 21.1632 10.4316 19.2406 8.03358C17.4604 5.81351 15.9229 3.89636 15.9229 1.06829C15.9229 0.84113 15.7856 0.633503 15.5679 0.529405C15.3494 0.424683 15.087 0.441834 14.8885 0.575519C12.0011 2.48971 9.59197 5.71594 8.75041 8.79423C8.16617 10.9373 8.08888 13.3466 8.07803 14.9379C5.41156 14.4102 4.80753 10.715 4.80116 10.6747C4.77112 10.483 4.64472 10.3162 4.46083 10.2251C4.27504 10.1352 4.05663 10.1287 3.86826 10.2151C3.72844 10.2778 0.436184 11.8276 0.244628 18.0156C0.231204 18.2215 0.230591 18.4279 0.230591 18.6344C0.230591 24.6461 5.5105 29.5375 11.9998 29.5375C12.0088 29.5381 12.0183 29.5392 12.026 29.5375C12.0286 29.5375 12.0311 29.5375 12.0343 29.5375C18.5076 29.5203 23.769 24.6355 23.769 18.6344C23.769 18.3321 23.702 17.4856 23.702 17.4856ZM11.9998 28.326C9.83648 28.326 8.07674 26.5893 8.07674 24.4545C8.07674 24.3817 8.07613 24.3084 8.08183 24.2185C8.108 23.3181 8.29257 22.7036 8.49498 22.2948C8.87429 23.0496 9.55237 23.7435 10.6538 23.7435C11.0152 23.7435 11.3077 23.4725 11.3077 23.1377C11.3077 22.2753 11.3269 21.2803 11.5587 20.3823C11.7649 19.5861 12.2578 18.739 12.8823 18.06C13.1601 18.9414 13.7016 19.6547 14.2303 20.351C14.9869 21.3471 15.7691 22.377 15.9064 24.1333C15.9147 24.2374 15.923 24.3421 15.923 24.4545C15.9229 26.5892 14.1631 28.326 11.9998 28.326Z" fill="white"/>
</svg>
